<svg width="16" height="15" viewBox="0 0 16 15" fill="none" xmlns="http://www.w3.org/2000/svg">
<path d="M15.96 15L15.9637 14.9994V9.49816C15.9637 6.80692 15.3844 4.73381 12.2381 4.73381C10.7256 4.73381 9.71063 5.5638 9.29626 6.35067H9.25251V4.98505H6.2694V14.9994H9.37563V10.0407C9.37563 8.73504 9.62313 7.47254 11.24 7.47254C12.8331 7.47254 12.8569 8.96253 12.8569 10.1244V15H15.96Z" fill="#262F56"/>
<path d="M1.21171 4.98543H4.32169V14.9997H1.21171V4.98543Z" fill="#262F56"/>
<path d="M2.76511 0C1.77074 0 0.963867 0.80687 0.963867 1.80124C0.963867 2.79561 1.77074 3.61935 2.76511 3.61935C3.75947 3.61935 4.56634 2.79561 4.56634 1.80124C4.56572 0.80687 3.75885 0 2.76511 0Z" fill="#262F56"/>
</svg>
