<svg width="12" height="23" viewBox="0 0 12 23" fill="none" xmlns="http://www.w3.org/2000/svg">
<path d="M11.5121 0.410827L8.7348 0.40625C5.61464 0.40625 3.59825 2.53134 3.59825 5.82048V8.3168H0.805838C0.564541 8.3168 0.369141 8.51775 0.369141 8.76562V12.3825C0.369141 12.6304 0.564764 12.8311 0.805838 12.8311H3.59825V21.9577C3.59825 22.2055 3.79365 22.4062 4.03495 22.4062H7.67826C7.91955 22.4062 8.11495 22.2053 8.11495 21.9577V12.8311H11.3799C11.6212 12.8311 11.8166 12.6304 11.8166 12.3825L11.818 8.76562C11.818 8.64661 11.7718 8.53263 11.6901 8.4484C11.6083 8.36418 11.4969 8.3168 11.381 8.3168H8.11495V6.20064C8.11495 5.18352 8.3509 4.66719 9.64072 4.66719L11.5116 4.6665C11.7527 4.6665 11.9481 4.46555 11.9481 4.21791V0.859419C11.9481 0.612007 11.7529 0.411285 11.5121 0.410827Z" fill="#262F56"/>
</svg>
