<svg width="17" height="16" viewBox="0 0 17 16" fill="none" xmlns="http://www.w3.org/2000/svg">
<path fill-rule="evenodd" clip-rule="evenodd" d="M2.30371 4.75C2.30371 3.64543 3.19914 2.75 4.30371 2.75C5.40828 2.75 6.30371 3.64543 6.30371 4.75C6.30371 5.85457 5.40828 6.75 4.30371 6.75C3.19914 6.75 2.30371 5.85457 2.30371 4.75ZM7.72317 4C7.37983 2.42741 5.97927 1.25 4.30371 1.25C2.37071 1.25 0.803711 2.817 0.803711 4.75C0.803711 6.683 2.37071 8.25 4.30371 8.25C5.97927 8.25 7.37983 7.07259 7.72317 5.5H13.0537C13.4679 5.5 13.8037 5.16421 13.8037 4.75C13.8037 4.33579 13.4679 4 13.0537 4H7.72317ZM2.30371 11.25C2.30371 10.8358 2.6395 10.5 3.05371 10.5H8.38426C8.72759 8.92741 10.1282 7.75 11.8037 7.75C13.7367 7.75 15.3037 9.317 15.3037 11.25C15.3037 13.183 13.7367 14.75 11.8037 14.75C10.1282 14.75 8.72759 13.5726 8.38426 12H3.05371C2.6395 12 2.30371 11.6642 2.30371 11.25ZM9.80371 11.25C9.80371 12.3546 10.6991 13.25 11.8037 13.25C12.9083 13.25 13.8037 12.3546 13.8037 11.25C13.8037 10.1454 12.9083 9.25 11.8037 9.25C10.6991 9.25 9.80371 10.1454 9.80371 11.25Z" fill="#F3F3F3"/>
</svg>
