<svg width="17" height="17" viewBox="0 0 17 17" fill="none" xmlns="http://www.w3.org/2000/svg">
<path fill-rule="evenodd" clip-rule="evenodd" d="M2.46484 4.89941C2.46484 3.79484 3.36027 2.89941 4.46484 2.89941C5.56941 2.89941 6.46484 3.79484 6.46484 4.89941C6.46484 6.00398 5.56941 6.89941 4.46484 6.89941C3.36027 6.89941 2.46484 6.00398 2.46484 4.89941ZM7.8843 4.14941C7.54096 2.57682 6.1404 1.39941 4.46484 1.39941C2.53185 1.39941 0.964844 2.96642 0.964844 4.89941C0.964844 6.83241 2.53185 8.39941 4.46484 8.39941C6.1404 8.39941 7.54096 7.22201 7.8843 5.64941H13.2148C13.6291 5.64941 13.9648 5.31363 13.9648 4.89941C13.9648 4.4852 13.6291 4.14941 13.2148 4.14941H7.8843ZM2.46484 11.3994C2.46484 10.9852 2.80063 10.6494 3.21484 10.6494H8.54539C8.88872 9.07682 10.2893 7.89941 11.9648 7.89941C13.8978 7.89941 15.4648 9.46642 15.4648 11.3994C15.4648 13.3324 13.8978 14.8994 11.9648 14.8994C10.2893 14.8994 8.88872 13.722 8.54539 12.1494H3.21484C2.80063 12.1494 2.46484 11.8136 2.46484 11.3994ZM9.96484 11.3994C9.96484 12.504 10.8603 13.3994 11.9648 13.3994C13.0694 13.3994 13.9648 12.504 13.9648 11.3994C13.9648 10.2948 13.0694 9.39941 11.9648 9.39941C10.8603 9.39941 9.96484 10.2948 9.96484 11.3994Z" fill="#F3F3F3"/>
</svg>
