<svg width="21" height="21" viewBox="0 0 21 21" fill="none" xmlns="http://www.w3.org/2000/svg">
<path d="M20.3642 20.4061L20.3692 20.4053V13.0703C20.3692 9.48194 19.5967 6.71777 15.4017 6.71777C13.385 6.71777 12.0317 7.82444 11.4792 8.87361H11.4209V7.05277H7.44336V20.4053H11.585V13.7936C11.585 12.0528 11.915 10.3694 14.0709 10.3694C16.195 10.3694 16.2267 12.3561 16.2267 13.9053V20.4061H20.3642Z" fill="#262F56"/>
<path d="M0.699219 7.05371H4.84589V20.4062H0.699219V7.05371Z" fill="#262F56"/>
<path d="M2.77081 0.40625C1.44497 0.40625 0.369141 1.48208 0.369141 2.80792C0.369141 4.13375 1.44497 5.23208 2.77081 5.23208C4.09664 5.23208 5.17247 4.13375 5.17247 2.80792C5.17164 1.48208 4.09581 0.40625 2.77081 0.40625Z" fill="#262F56"/>
</svg>
