<svg width="21" height="21" viewBox="0 0 21 21" fill="none" xmlns="http://www.w3.org/2000/svg">
<path fill-rule="evenodd" clip-rule="evenodd" d="M0.424805 10.4062C0.424805 6.21488 0.424805 4.11919 1.47521 2.67343C1.81445 2.20651 2.22506 1.79589 2.69199 1.45666C4.13775 0.40625 6.23343 0.40625 10.4248 0.40625C14.6162 0.40625 16.7119 0.40625 18.1576 1.45666C18.6245 1.79589 19.0352 2.20651 19.3744 2.67343C20.4248 4.11919 20.4248 6.21488 20.4248 10.4062C20.4248 14.5976 20.4248 16.6933 19.3744 18.1391C19.0352 18.606 18.6245 19.0166 18.1576 19.3558C16.7119 20.4062 14.6162 20.4062 10.4248 20.4062C6.23343 20.4062 4.13775 20.4062 2.69199 19.3558C2.22506 19.0166 1.81445 18.606 1.47521 18.1391C0.424805 16.6933 0.424805 14.5976 0.424805 10.4062ZM10.4248 5.11213C7.50113 5.11213 5.13069 7.48257 5.13069 10.4062C5.13069 13.3299 7.50113 15.7004 10.4248 15.7004C13.3485 15.7004 15.7189 13.3299 15.7189 10.4062C15.7189 7.48257 13.3485 5.11213 10.4248 5.11213ZM10.4248 13.7151C8.60098 13.7151 7.11598 12.2301 7.11598 10.4062C7.11598 8.5811 8.60098 7.09743 10.4248 7.09743C12.2486 7.09743 13.7336 8.5811 13.7336 10.4062C13.7336 12.2301 12.2486 13.7151 10.4248 13.7151ZM16.8214 4.71508C16.8214 5.10469 16.5056 5.42052 16.116 5.42052C15.7264 5.42052 15.4106 5.10469 15.4106 4.71508C15.4106 4.32548 15.7264 4.00964 16.116 4.00964C16.5056 4.00964 16.8214 4.32548 16.8214 4.71508Z" fill="#262F56"/>
</svg>
