<svg width="264" height="50" viewBox="0 0 264 50" fill="none" xmlns="http://www.w3.org/2000/svg">
<path d="M75.0254 13.82H82.9612C82.9612 15.3768 82.6443 16.7752 82.0106 18.0152C81.3768 19.2414 80.4813 20.1989 79.324 20.8878C78.1667 21.5766 76.8441 21.9211 75.3561 21.9211C73.1242 21.9211 71.278 21.2046 69.8176 19.7718C68.371 18.3389 67.6476 16.5272 67.6476 14.3366C67.6476 12.1322 68.3641 10.3136 69.7969 8.88076C71.2435 7.43414 73.0828 6.71082 75.3148 6.71082C77.2023 6.71082 78.8487 7.24814 80.254 8.32278C81.6592 9.39741 82.5134 10.7752 82.8165 12.456H78.642C78.3802 11.8498 77.9462 11.3676 77.34 11.0094C76.7476 10.6374 76.0863 10.4514 75.3561 10.4514C74.2677 10.4514 73.3859 10.8096 72.7108 11.526C72.0495 12.2424 71.7189 13.1793 71.7189 14.3366C71.7189 15.0806 71.8635 15.7488 72.1528 16.3412C72.456 16.9199 72.8831 17.3745 73.4341 17.7052C73.9852 18.0221 74.6259 18.1805 75.3561 18.1805C76.1138 18.1805 76.7889 18.0152 77.3814 17.6845C77.9876 17.3401 78.4009 16.8854 78.6213 16.3206H75.0254V13.82ZM84.7345 21.5491V6.3595H88.5784V21.5491H84.7345ZM96.5913 21.9211C94.7727 21.9211 93.271 21.3631 92.0861 20.2471C90.915 19.1174 90.3295 17.6914 90.3295 15.9692C90.3295 14.2333 90.915 12.8073 92.0861 11.6913C93.271 10.5754 94.7727 10.0174 96.5913 10.0174C98.4099 10.0174 99.9048 10.5823 101.076 11.712C102.261 12.828 102.853 14.2471 102.853 15.9692C102.853 17.6914 102.261 19.1174 101.076 20.2471C99.891 21.3631 98.3961 21.9211 96.5913 21.9211ZM94.8554 17.7672C95.31 18.2356 95.8887 18.4698 96.5913 18.4698C97.2939 18.4698 97.8657 18.2356 98.3066 17.7672C98.7612 17.2987 98.9886 16.6994 98.9886 15.9692C98.9886 15.239 98.7612 14.6397 98.3066 14.1713C97.8657 13.7028 97.2939 13.4686 96.5913 13.4686C96.1229 13.4686 95.7027 13.5789 95.3307 13.7993C94.9725 14.006 94.69 14.3022 94.4834 14.6879C94.2767 15.0599 94.1734 15.487 94.1734 15.9692C94.1734 16.6994 94.4007 17.2987 94.8554 17.7672ZM111.205 10.0381C112.914 10.0381 114.312 10.596 115.401 11.712C116.503 12.8142 117.054 14.2333 117.054 15.9692C117.054 17.7052 116.503 19.1311 115.401 20.2471C114.312 21.3631 112.914 21.9211 111.205 21.9211C109.91 21.9211 108.788 21.5215 107.837 20.7224L107.465 21.5491H104.634V6.3595H108.416V10.8027C109.256 10.2929 110.186 10.0381 111.205 10.0381ZM110.689 18.5112C111.405 18.5112 111.998 18.2701 112.466 17.7878C112.948 17.3056 113.189 16.6994 113.189 15.9692C113.189 15.239 112.948 14.6328 112.466 14.1506C111.998 13.6684 111.405 13.4273 110.689 13.4273C109.972 13.4273 109.373 13.6684 108.891 14.1506C108.422 14.6328 108.188 15.239 108.188 15.9692C108.188 16.4514 108.292 16.8854 108.498 17.2712C108.719 17.657 109.015 17.9601 109.387 18.1805C109.773 18.4009 110.207 18.5112 110.689 18.5112ZM127.832 10.3687H130.684V21.5284H127.728L127.398 20.7431C126.433 21.5284 125.311 21.9211 124.029 21.9211C122.899 21.9211 121.887 21.6662 120.991 21.1564C120.11 20.6467 119.414 19.9371 118.904 19.0278C118.408 18.1185 118.16 17.0921 118.16 15.9486C118.16 14.2264 118.711 12.8142 119.813 11.712C120.916 10.596 122.321 10.0381 124.029 10.0381C125.324 10.0381 126.461 10.4376 127.439 11.2367L127.832 10.3687ZM122.748 17.7878C123.216 18.2701 123.809 18.5112 124.525 18.5112C125.255 18.5112 125.855 18.2701 126.323 17.7878C126.792 17.3056 127.026 16.6994 127.026 15.9692C127.026 15.239 126.792 14.6328 126.323 14.1506C125.855 13.6684 125.262 13.4273 124.546 13.4273C123.816 13.4273 123.216 13.6684 122.748 14.1506C122.28 14.6328 122.045 15.239 122.045 15.9692C122.045 16.6994 122.28 17.3056 122.748 17.7878ZM133.13 21.5491V6.3595H136.974V21.5491H133.13ZM153.187 13.9026C153.876 14.2333 154.413 14.7086 154.799 15.3286C155.199 15.9486 155.399 16.6512 155.399 17.4365C155.399 18.6076 154.951 19.5858 154.055 20.3711C153.16 21.1564 152.044 21.5491 150.707 21.5491H144.053V7.08281H150.583C151.424 7.08281 152.182 7.24125 152.857 7.55813C153.532 7.87501 154.062 8.31589 154.448 8.88076C154.834 9.44563 155.027 10.0794 155.027 10.782C155.027 11.4158 154.861 12.0151 154.531 12.58C154.2 13.1311 153.752 13.572 153.187 13.9026ZM151.245 11.4434C151.245 11.0714 151.121 10.7683 150.873 10.534C150.625 10.2998 150.294 10.1827 149.881 10.1827H147.876V12.704H149.881C150.156 12.704 150.397 12.6558 150.604 12.5593C150.811 12.4491 150.969 12.2976 151.079 12.1047C151.19 11.9118 151.245 11.6913 151.245 11.4434ZM150.046 18.2838C150.473 18.2838 150.818 18.1598 151.079 17.9118C151.341 17.6638 151.472 17.347 151.472 16.9612C151.472 16.5754 151.341 16.2586 151.079 16.0106C150.818 15.7626 150.473 15.6386 150.046 15.6386H147.876V18.2838H150.046ZM157.328 21.5491V6.3595H161.172V21.5491H157.328ZM169.185 21.9211C167.366 21.9211 165.865 21.3631 164.68 20.2471C163.509 19.1174 162.923 17.6914 162.923 15.9692C162.923 14.2333 163.509 12.8073 164.68 11.6913C165.865 10.5754 167.366 10.0174 169.185 10.0174C171.004 10.0174 172.498 10.5823 173.669 11.712C174.854 12.828 175.447 14.2471 175.447 15.9692C175.447 17.6914 174.854 19.1174 173.669 20.2471C172.485 21.3631 170.99 21.9211 169.185 21.9211ZM167.449 17.7672C167.904 18.2356 168.482 18.4698 169.185 18.4698C169.888 18.4698 170.459 18.2356 170.9 17.7672C171.355 17.2987 171.582 16.6994 171.582 15.9692C171.582 15.239 171.355 14.6397 170.9 14.1713C170.459 13.7028 169.888 13.4686 169.185 13.4686C168.717 13.4686 168.296 13.5789 167.924 13.7993C167.566 14.006 167.284 14.3022 167.077 14.6879C166.87 15.0599 166.767 15.487 166.767 15.9692C166.767 16.6994 166.994 17.2987 167.449 17.7672ZM182.745 21.9211C181.56 21.9211 180.499 21.6662 179.563 21.1564C178.626 20.6467 177.889 19.9371 177.351 19.0278C176.828 18.1185 176.566 17.099 176.566 15.9692C176.566 14.8257 176.828 13.8062 177.351 12.9106C177.889 12.0013 178.626 11.2987 179.563 10.8027C180.499 10.2929 181.56 10.0381 182.745 10.0381C183.778 10.0381 184.715 10.2447 185.556 10.658C186.41 11.0714 187.106 11.65 187.643 12.394C188.18 13.138 188.518 13.9991 188.656 14.9773H184.915C184.75 14.5226 184.467 14.1644 184.068 13.9026C183.682 13.6271 183.241 13.4893 182.745 13.4893C182.07 13.4893 181.512 13.7235 181.071 14.1919C180.644 14.6466 180.431 15.239 180.431 15.9692C180.431 16.6994 180.644 17.2987 181.071 17.7672C181.512 18.2356 182.07 18.4698 182.745 18.4698C183.255 18.4698 183.703 18.3252 184.088 18.0358C184.488 17.7327 184.764 17.3332 184.915 16.8372H188.697C188.477 18.3527 187.822 19.5789 186.734 20.5158C185.645 21.4526 184.316 21.9211 182.745 21.9211ZM201.691 21.5491H197.165L194.375 16.8372V21.5491H190.531V6.3595H194.375V14.7706L197.02 10.3894H201.339L197.867 15.7006L201.691 21.5491ZM207.69 21.9211C206.505 21.9211 205.444 21.6662 204.507 21.1564C203.57 20.6467 202.833 19.9371 202.296 19.0278C201.772 18.1185 201.511 17.099 201.511 15.9692C201.511 14.8257 201.772 13.8062 202.296 12.9106C202.833 12.0013 203.57 11.2987 204.507 10.8027C205.444 10.2929 206.505 10.0381 207.69 10.0381C208.723 10.0381 209.66 10.2447 210.5 10.658C211.355 11.0714 212.05 11.65 212.588 12.394C213.125 13.138 213.462 13.9991 213.6 14.9773H209.86C209.694 14.5226 209.412 14.1644 209.012 13.9026C208.627 13.6271 208.186 13.4893 207.69 13.4893C207.015 13.4893 206.457 13.7235 206.016 14.1919C205.589 14.6466 205.375 15.239 205.375 15.9692C205.375 16.6994 205.589 17.2987 206.016 17.7672C206.457 18.2356 207.015 18.4698 207.69 18.4698C208.2 18.4698 208.647 18.3252 209.033 18.0358C209.433 17.7327 209.708 17.3332 209.86 16.8372H213.642C213.421 18.3527 212.767 19.5789 211.678 20.5158C210.59 21.4526 209.26 21.9211 207.69 21.9211ZM222.13 10.0587C223.411 10.0587 224.431 10.4927 225.189 11.3607C225.946 12.2287 226.325 13.386 226.325 14.8326V21.5491H222.481V15.2666C222.481 13.9715 221.999 13.324 221.035 13.324C220.801 13.324 220.58 13.3584 220.373 13.4273C220.181 13.4962 220.008 13.5926 219.857 13.7166C219.705 13.8406 219.574 13.9922 219.464 14.1713C219.368 14.3504 219.292 14.5639 219.237 14.8119C219.182 15.0461 219.154 15.3079 219.154 15.5972V21.5491H215.31V6.3595H219.154V11.1334C220.022 10.4169 221.014 10.0587 222.13 10.0587ZM237.641 10.3687H240.492V21.5284H237.537L237.207 20.7431C236.242 21.5284 235.119 21.9211 233.838 21.9211C232.708 21.9211 231.696 21.6662 230.8 21.1564C229.918 20.6467 229.223 19.9371 228.713 19.0278C228.217 18.1185 227.969 17.0921 227.969 15.9486C227.969 14.2264 228.52 12.8142 229.622 11.712C230.724 10.596 232.13 10.0381 233.838 10.0381C235.133 10.0381 236.27 10.4376 237.248 11.2367L237.641 10.3687ZM232.557 17.7878C233.025 18.2701 233.618 18.5112 234.334 18.5112C235.064 18.5112 235.663 18.2701 236.132 17.7878C236.6 17.3056 236.835 16.6994 236.835 15.9692C236.835 15.239 236.6 14.6328 236.132 14.1506C235.663 13.6684 235.071 13.4273 234.355 13.4273C233.624 13.4273 233.025 13.6684 232.557 14.1506C232.088 14.6328 231.854 15.239 231.854 15.9692C231.854 16.6994 232.088 17.3056 232.557 17.7878ZM242.96 8.98409V5.73952H246.742V8.98409H242.96ZM242.939 21.5491V10.3894H246.783V21.5491H242.939ZM255.932 10.0587C257.228 10.0587 258.261 10.4858 259.032 11.34C259.818 12.1942 260.21 13.3309 260.21 14.7499V21.5491H256.366V15.2666C256.366 13.9715 255.884 13.324 254.92 13.324C254.52 13.324 254.176 13.4135 253.887 13.5926C253.611 13.7717 253.397 14.0335 253.246 14.3779C253.108 14.7086 253.039 15.115 253.039 15.5972V21.5491H249.195V10.3894H251.882L252.419 11.5467C253.301 10.5547 254.472 10.0587 255.932 10.0587ZM77.4227 30.0828H81.2873V44.5491H78.0014L72.2562 36.696V44.5491H68.3916V30.0828H71.8635L77.4227 37.6673V30.0828ZM95.2359 38.8659C95.2359 39.1828 95.2083 39.5203 95.1532 39.8785H86.8661C86.9901 40.5123 87.245 40.9945 87.6308 41.3252C88.0303 41.6558 88.5332 41.8211 89.1394 41.8211C89.4425 41.8211 89.7249 41.7798 89.9867 41.6972C90.2485 41.6145 90.4758 41.4974 90.6687 41.3458C90.8754 41.1805 91.0407 40.9876 91.1647 40.7672H94.9879C94.6021 42.0485 93.8788 43.0611 92.818 43.8051C91.7709 44.5491 90.5447 44.9211 89.1394 44.9211C87.4035 44.9211 85.9568 44.3562 84.7995 43.2264C83.656 42.0829 83.0842 40.6638 83.0842 38.9692C83.0842 37.8395 83.346 36.82 83.8696 35.9106C84.3931 35.0013 85.1164 34.2918 86.0395 33.782C86.9626 33.2723 87.9959 33.0174 89.1394 33.0174C90.3243 33.0174 91.3782 33.2792 92.3013 33.8027C93.2382 34.3125 93.9615 35.0151 94.4713 35.9106C94.981 36.7924 95.2359 37.7775 95.2359 38.8659ZM89.1394 36.0346C88.5883 36.0346 88.1199 36.1862 87.7341 36.4893C87.3621 36.7786 87.0935 37.1988 86.9281 37.7499H91.454C91.1096 36.6064 90.338 36.0346 89.1394 36.0346ZM102.858 41.1805H104.346V44.5491H101.701C100.461 44.5491 99.4892 44.1977 98.7866 43.4951C98.0839 42.7787 97.7326 41.8005 97.7326 40.5605V36.3446H95.6867V35.456L100.688 30.1241H101.473V33.3894H104.284V36.3446H101.577V39.8992C101.577 40.2987 101.687 40.6156 101.907 40.8498C102.141 41.0703 102.458 41.1805 102.858 41.1805ZM118.816 33.3894H122.742L119.188 44.5491H116.088L113.876 39.5479L111.727 44.5491H108.627L104.969 33.3894H108.999L110.694 39.2586L113.339 33.4307H114.372L117.142 39.2999L118.816 33.3894ZM129.346 44.9211C127.528 44.9211 126.026 44.3631 124.841 43.2471C123.67 42.1174 123.084 40.6914 123.084 38.9692C123.084 37.2333 123.67 35.8073 124.841 34.6913C126.026 33.5754 127.528 33.0174 129.346 33.0174C131.165 33.0174 132.66 33.5823 133.831 34.712C135.016 35.828 135.608 37.2471 135.608 38.9692C135.608 40.6914 135.016 42.1174 133.831 43.2471C132.646 44.3631 131.151 44.9211 129.346 44.9211ZM127.61 40.7672C128.065 41.2356 128.644 41.4698 129.346 41.4698C130.049 41.4698 130.621 41.2356 131.062 40.7672C131.516 40.2987 131.744 39.6994 131.744 38.9692C131.744 38.239 131.516 37.6397 131.062 37.1713C130.621 36.7028 130.049 36.4686 129.346 36.4686C128.878 36.4686 128.458 36.5789 128.086 36.7993C127.727 37.006 127.445 37.3022 127.238 37.6879C127.032 38.0599 126.928 38.487 126.928 38.9692C126.928 39.6994 127.156 40.2987 127.61 40.7672ZM143.63 33.3274H144.642V36.8613H143.154C142.479 36.8613 141.99 37.0197 141.687 37.3366C141.384 37.6535 141.232 38.1633 141.232 38.8659V44.5491H137.389V33.3894H139.951L140.55 34.6294C141.294 33.7614 142.321 33.3274 143.63 33.3274ZM157.432 44.5491H152.906L150.116 39.8372V44.5491H146.272V29.3595H150.116V37.7706L152.762 33.3894H157.081L153.609 38.7006L157.432 44.5491Z" fill="white"/>
<circle cx="28.5278" cy="25" r="25" fill="url(#paint0_radial)"/>
<circle cx="10.1672" cy="35.1672" r="10.1672" transform="rotate(-90 10.1672 35.1672)" fill="url(#paint1_radial)"/>
<defs>
<radialGradient id="paint0_radial" cx="0" cy="0" r="1" gradientUnits="userSpaceOnUse" gradientTransform="translate(50.1261) rotate(134.708) scale(70.353)">
<stop stop-color="white"/>
<stop offset="1" stop-color="#4886FF" stop-opacity="0"/>
</radialGradient>
<radialGradient id="paint1_radial" cx="0" cy="0" r="1" gradientUnits="userSpaceOnUse" gradientTransform="translate(18.951 25) rotate(134.708) scale(28.6118)">
<stop stop-color="white"/>
<stop offset="1" stop-color="#4886FF" stop-opacity="0"/>
</radialGradient>
</defs>
</svg>
