<svg width="22" height="17" viewBox="0 0 22 17" fill="none" xmlns="http://www.w3.org/2000/svg">
<path d="M21.9482 2.17205C21.1753 2.49999 20.346 2.72239 19.4746 2.82168C20.3644 2.31153 21.0454 1.50235 21.3682 0.541115C20.5336 1.01355 19.6124 1.3566 18.6308 1.54257C17.8448 0.739664 16.7267 0.239563 15.4866 0.239563C13.1075 0.239563 11.1785 2.08663 11.1785 4.36342C11.1785 4.68632 11.2166 5.00171 11.2901 5.30329C7.71025 5.13113 4.53592 3.48889 2.41138 0.993443C2.04 1.60161 1.82873 2.31025 1.82873 3.06669C1.82873 4.49786 2.58985 5.76065 3.74464 6.49945C3.03864 6.47684 2.37463 6.29088 1.79332 5.98177V6.03329C1.79332 8.03113 3.2788 9.6985 5.24848 10.078C4.8876 10.171 4.50706 10.2225 4.11338 10.2225C3.8352 10.2225 3.56618 10.1961 3.30241 10.1458C3.85091 11.7856 5.44139 12.978 7.3258 13.0107C5.85213 14.1164 3.99397 14.7736 1.97573 14.7736C1.628 14.7736 1.28548 14.7535 0.948242 14.717C2.85496 15.8894 5.1186 16.5729 7.55152 16.5729C15.4762 16.5729 19.808 10.2878 19.808 4.83713L19.7935 4.30313C20.6399 3.72509 21.3721 2.99884 21.9482 2.17205Z" fill="#262F56"/>
</svg>
