<svg width="16" height="14" viewBox="0 0 16 14" fill="none" xmlns="http://www.w3.org/2000/svg">
<path fill-rule="evenodd" clip-rule="evenodd" d="M2.46484 3.89941C2.46484 2.79484 3.36027 1.89941 4.46484 1.89941C5.56941 1.89941 6.46484 2.79484 6.46484 3.89941C6.46484 5.00398 5.56941 5.89941 4.46484 5.89941C3.36027 5.89941 2.46484 5.00398 2.46484 3.89941ZM7.8843 3.14941C7.54096 1.57682 6.1404 0.399414 4.46484 0.399414C2.53185 0.399414 0.964844 1.96642 0.964844 3.89941C0.964844 5.83241 2.53185 7.39941 4.46484 7.39941C6.1404 7.39941 7.54096 6.22201 7.8843 4.64941H13.2148C13.6291 4.64941 13.9648 4.31363 13.9648 3.89941C13.9648 3.4852 13.6291 3.14941 13.2148 3.14941H7.8843ZM2.46484 10.3994C2.46484 9.9852 2.80063 9.64941 3.21484 9.64941H8.54539C8.88872 8.07682 10.2893 6.89941 11.9648 6.89941C13.8978 6.89941 15.4648 8.46642 15.4648 10.3994C15.4648 12.3324 13.8978 13.8994 11.9648 13.8994C10.2893 13.8994 8.88872 12.722 8.54539 11.1494H3.21484C2.80063 11.1494 2.46484 10.8136 2.46484 10.3994ZM9.96484 10.3994C9.96484 11.504 10.8603 12.3994 11.9648 12.3994C13.0694 12.3994 13.9648 11.504 13.9648 10.3994C13.9648 9.29484 13.0694 8.39941 11.9648 8.39941C10.8603 8.39941 9.96484 9.29484 9.96484 10.3994Z" fill="#F3F3F3"/>
</svg>
