<svg width="25" height="17" viewBox="0 0 25 17" fill="none" xmlns="http://www.w3.org/2000/svg">
<path fill-rule="evenodd" clip-rule="evenodd" d="M21.7594 0.518308C22.7874 0.795162 23.598 1.60558 23.8747 2.63371C24.3888 4.51164 24.369 8.42604 24.369 8.42604C24.369 8.42604 24.369 12.3205 23.8748 14.1986C23.598 15.2265 22.7876 16.0372 21.7594 16.3138C19.8813 16.8082 12.3691 16.8082 12.3691 16.8082C12.3691 16.8082 4.87645 16.8082 2.97875 16.2942C1.95062 16.0174 1.14019 15.2068 0.86334 14.1788C0.369141 12.3205 0.369141 8.40627 0.369141 8.40627C0.369141 8.40627 0.369141 4.51164 0.86334 2.63371C1.14001 1.60577 1.97039 0.775387 2.97857 0.498716C4.85667 0.0043335 12.3689 0.0043335 12.3689 0.0043335C12.3689 0.0043335 19.8813 0.0043335 21.7594 0.518308ZM16.224 8.4063L9.97702 12.0043V4.80827L16.224 8.4063Z" fill="#262F56"/>
</svg>
