<svg width="16" height="16" viewBox="0 0 16 16" fill="none" xmlns="http://www.w3.org/2000/svg">
<path d="M15.8809 15.5L15.8846 15.4994V9.99816C15.8846 7.30692 15.3053 5.23381 12.159 5.23381C10.6465 5.23381 9.63153 6.0638 9.21715 6.85067H9.1734V5.48505H6.19029V15.4994H9.29653V10.5407C9.29653 9.23504 9.54403 7.97254 11.1609 7.97254C12.754 7.97254 12.7778 9.46253 12.7778 10.6244V15.5H15.8809Z" fill="#262F56"/>
<path d="M1.13261 5.48543H4.24259V15.4997H1.13261V5.48543Z" fill="#262F56"/>
<path d="M2.686 0.5C1.69164 0.5 0.884766 1.30687 0.884766 2.30124C0.884766 3.29561 1.69164 4.11935 2.686 4.11935C3.68037 4.11935 4.48724 3.29561 4.48724 2.30124C4.48662 1.30687 3.67975 0.5 2.686 0.5Z" fill="#262F56"/>
</svg>
